<svg xmlns="http://www.w3.org/2000/svg" xmlns:xlink="http://www.w3.org/1999/xlink" width="1123" zoomAndPan="magnify" viewBox="0 0 841.92 595.499987" height="794" preserveAspectRatio="xMidYMid meet" version="1.0"><defs><filter x="0%" y="0%" width="100%" height="100%" id="d151f8a012"><feColorMatrix values="0 0 0 0 1 0 0 0 0 1 0 0 0 0 1 0 0 0 1 0" color-interpolation-filters="sRGB"></feColorMatrix></filter><filter x="0%" y="0%" width="100%" height="100%" id="80e7c2ef4a"><feColorMatrix values="0 0 0 0 1 0 0 0 0 1 0 0 0 0 1 0.2126 0.7152 0.0722 0 0" color-interpolation-filters="sRGB"></feColorMatrix></filter><clipPath id="226c930ac3"><path d="M 0.3125 0 L 841.527344 0 L 841.527344 595 L 0.3125 595 Z M 0.3125 0 " clip-rule="nonzero"></path></clipPath><clipPath id="7f264cd3d3"><path d="M 151.480469 70 L 712.761719 70 L 712.761719 435 L 151.480469 435 Z M 151.480469 70 " clip-rule="nonzero"></path></clipPath><mask id="b2d13797fa"><g filter="url(#d151f8a012)"><g filter="url(#80e7c2ef4a)" transform="matrix(0.211086, 0, 0, 0.210896, 151.482033, 69.655827)"><image x="0" y="0" width="2659" height="1734" preserveAspectRatio="xMidYMid meet"></image></g></g></mask></defs><g clip-path="url(#226c930ac3)"><path fill="#ffffff" d="M 0.3125 0 L 841.855469 0 L 841.855469 595 L 0.3125 595 Z M 0.3125 0 " fill-opacity="1" fill-rule="nonzero"></path><path fill="#ffffff" d="M 0.3125 0 L 841.855469 0 L 841.855469 595 L 0.3125 595 Z M 0.3125 0 " fill-opacity="1" fill-rule="nonzero"></path></g><g clip-path="url(#7f264cd3d3)"><g mask="url(#b2d13797fa)"><g transform="matrix(0.211086, 0, 0, 0.210896, 151.482033, 69.655827)"><image x="0" y="0" width="2659" height="1734" preserveAspectRatio="xMidYMid meet"></image></g></g></g></svg>