<svg xmlns="http://www.w3.org/2000/svg" xmlns:xlink="http://www.w3.org/1999/xlink" width="1123" zoomAndPan="magnify" viewBox="0 0 841.92 595.499987" height="794" preserveAspectRatio="xMidYMid meet" version="1.0"><defs><filter x="0%" y="0%" width="100%" height="100%" id="5d1de8adf5"><feColorMatrix values="0 0 0 0 1 0 0 0 0 1 0 0 0 0 1 0 0 0 1 0" color-interpolation-filters="sRGB"></feColorMatrix></filter><filter x="0%" y="0%" width="100%" height="100%" id="dbd531f452"><feColorMatrix values="0 0 0 0 1 0 0 0 0 1 0 0 0 0 1 0.2126 0.7152 0.0722 0 0" color-interpolation-filters="sRGB"></feColorMatrix></filter><clipPath id="2b42d6addc"><path d="M 0.3125 0 L 841.527344 0 L 841.527344 595 L 0.3125 595 Z M 0.3125 0 " clip-rule="nonzero"></path></clipPath><clipPath id="057ff11d5f"><path d="M 198 74.472656 L 643.863281 74.472656 L 643.863281 520 L 198 520 Z M 198 74.472656 " clip-rule="nonzero"></path></clipPath><mask id="d221e4a74d"><g filter="url(#5d1de8adf5)"><g filter="url(#dbd531f452)" transform="matrix(0.179716, 0, 0, 0.179716, 197.987791, 74.470955)"><image x="0" y="0" width="2481" height="2481" preserveAspectRatio="xMidYMid meet"></image></g></g></mask></defs><g clip-path="url(#2b42d6addc)"><path fill="#ffffff" d="M 0.3125 0 L 841.855469 0 L 841.855469 595 L 0.3125 595 Z M 0.3125 0 " fill-opacity="1" fill-rule="nonzero"></path><path fill="#ffffff" d="M 0.3125 0 L 841.855469 0 L 841.855469 595 L 0.3125 595 Z M 0.3125 0 " fill-opacity="1" fill-rule="nonzero"></path></g><g clip-path="url(#057ff11d5f)"><g mask="url(#d221e4a74d)"><g transform="matrix(0.179716, 0, 0, 0.179716, 197.987791, 74.470955)"><image x="0" y="0" width="2481" height="2481" preserveAspectRatio="xMidYMid meet"></image></g></g></g></svg>