<svg xmlns="http://www.w3.org/2000/svg" xmlns:xlink="http://www.w3.org/1999/xlink" width="1123" zoomAndPan="magnify" viewBox="0 0 841.92 595.499987" height="794" preserveAspectRatio="xMidYMid meet" version="1.0"><defs><filter x="0%" y="0%" width="100%" height="100%" id="085c479d71"><feColorMatrix values="0 0 0 0 1 0 0 0 0 1 0 0 0 0 1 0 0 0 1 0" color-interpolation-filters="sRGB"></feColorMatrix></filter><filter x="0%" y="0%" width="100%" height="100%" id="9a7def91a8"><feColorMatrix values="0 0 0 0 1 0 0 0 0 1 0 0 0 0 1 0.2126 0.7152 0.0722 0 0" color-interpolation-filters="sRGB"></feColorMatrix></filter><clipPath id="e3cfc4b224"><path d="M 0.3125 0 L 841.527344 0 L 841.527344 595 L 0.3125 595 Z M 0.3125 0 " clip-rule="nonzero"></path></clipPath><clipPath id="e811943ec7"><path d="M 193 59.476562 L 649.628906 59.476562 L 649.628906 535 L 193 535 Z M 193 59.476562 " clip-rule="nonzero"></path></clipPath><mask id="1529f5bbc8"><g filter="url(#085c479d71)"><g filter="url(#9a7def91a8)" transform="matrix(0.202622, 0, 0, 0.202921, 192.510857, 59.477617)"><image x="0" y="0" width="2256" height="2345" preserveAspectRatio="xMidYMid meet"></image></g></g></mask></defs><g clip-path="url(#e3cfc4b224)"><path fill="#ffffff" d="M 0.3125 0 L 841.855469 0 L 841.855469 595 L 0.3125 595 Z M 0.3125 0 " fill-opacity="1" fill-rule="nonzero"></path><path fill="#ffffff" d="M 0.3125 0 L 841.855469 0 L 841.855469 595 L 0.3125 595 Z M 0.3125 0 " fill-opacity="1" fill-rule="nonzero"></path></g><g clip-path="url(#e811943ec7)"><g mask="url(#1529f5bbc8)"><g transform="matrix(0.202622, 0, 0, 0.202921, 192.510857, 59.477617)"><image x="0" y="0" width="2256" height="2345" preserveAspectRatio="xMidYMid meet"></image></g></g></g></svg>