<svg xmlns="http://www.w3.org/2000/svg" xmlns:xlink="http://www.w3.org/1999/xlink" width="1123" zoomAndPan="magnify" viewBox="0 0 841.92 595.499987" height="794" preserveAspectRatio="xMidYMid meet" version="1.0"><defs><filter x="0%" y="0%" width="100%" height="100%" id="5ccc6e6131"><feColorMatrix values="0 0 0 0 1 0 0 0 0 1 0 0 0 0 1 0 0 0 1 0" color-interpolation-filters="sRGB"></feColorMatrix></filter><filter x="0%" y="0%" width="100%" height="100%" id="fc9c80d41e"><feColorMatrix values="0 0 0 0 1 0 0 0 0 1 0 0 0 0 1 0.2126 0.7152 0.0722 0 0" color-interpolation-filters="sRGB"></feColorMatrix></filter><clipPath id="0eacac622b"><path d="M 0.3125 0 L 841.527344 0 L 841.527344 595 L 0.3125 595 Z M 0.3125 0 " clip-rule="nonzero"></path></clipPath><clipPath id="a136b40696"><path d="M 60 176.414062 L 782 176.414062 L 782 418 L 60 418 Z M 60 176.414062 " clip-rule="nonzero"></path></clipPath><mask id="8df51e1359"><g filter="url(#5ccc6e6131)"><g filter="url(#fc9c80d41e)" transform="matrix(0.240798, 0, 0, 0.239413, 59.790812, 176.414874)"><image x="0" y="0" width="3000" height="1011" preserveAspectRatio="xMidYMid meet"></image></g></g></mask></defs><g clip-path="url(#0eacac622b)"><path fill="#ffffff" d="M 0.3125 0 L 841.855469 0 L 841.855469 595 L 0.3125 595 Z M 0.3125 0 " fill-opacity="1" fill-rule="nonzero"></path><path fill="#ffffff" d="M 0.3125 0 L 841.855469 0 L 841.855469 595 L 0.3125 595 Z M 0.3125 0 " fill-opacity="1" fill-rule="nonzero"></path></g><g clip-path="url(#a136b40696)"><g mask="url(#8df51e1359)"><g transform="matrix(0.240798, 0, 0, 0.239413, 59.790812, 176.414874)"><image x="0" y="0" width="3000" height="1011" preserveAspectRatio="xMidYMid meet"></image></g></g></g></svg>