<svg xmlns="http://www.w3.org/2000/svg" xmlns:xlink="http://www.w3.org/1999/xlink" width="1123" zoomAndPan="magnify" viewBox="0 0 841.92 595.499987" height="794" preserveAspectRatio="xMidYMid meet" version="1.0"><defs><filter x="0%" y="0%" width="100%" height="100%" id="92c13c4952"><feColorMatrix values="0 0 0 0 1 0 0 0 0 1 0 0 0 0 1 0 0 0 1 0" color-interpolation-filters="sRGB"></feColorMatrix></filter><filter x="0%" y="0%" width="100%" height="100%" id="655cf474e6"><feColorMatrix values="0 0 0 0 1 0 0 0 0 1 0 0 0 0 1 0.2126 0.7152 0.0722 0 0" color-interpolation-filters="sRGB"></feColorMatrix></filter><clipPath id="63ab6ea4a1"><path d="M 0.3125 0 L 841.527344 0 L 841.527344 595 L 0.3125 595 Z M 0.3125 0 " clip-rule="nonzero"></path></clipPath><clipPath id="96aa9cb2af"><path d="M 106 215 L 735.855469 215 L 735.855469 380 L 106 380 Z M 106 215 " clip-rule="nonzero"></path></clipPath><mask id="961669bee5"><g filter="url(#92c13c4952)"><g filter="url(#655cf474e6)" transform="matrix(0.22082, 0, 0, 0.220815, 105.636423, 214.630147)"><image x="0" y="0" width="2854" height="750" preserveAspectRatio="xMidYMid meet"></image></g></g></mask></defs><g clip-path="url(#63ab6ea4a1)"><path fill="#ffffff" d="M 0.3125 0 L 841.855469 0 L 841.855469 595 L 0.3125 595 Z M 0.3125 0 " fill-opacity="1" fill-rule="nonzero"></path><path fill="#ffffff" d="M 0.3125 0 L 841.855469 0 L 841.855469 595 L 0.3125 595 Z M 0.3125 0 " fill-opacity="1" fill-rule="nonzero"></path></g><g clip-path="url(#96aa9cb2af)"><g mask="url(#961669bee5)"><g transform="matrix(0.22082, 0, 0, 0.220815, 105.636423, 214.630147)"><image x="0" y="0" width="2854" height="750" preserveAspectRatio="xMidYMid meet"></image></g></g></g></svg>