<svg xmlns="http://www.w3.org/2000/svg" xmlns:xlink="http://www.w3.org/1999/xlink" width="1123" zoomAndPan="magnify" viewBox="0 0 841.92 595.499987" height="794" preserveAspectRatio="xMidYMid meet" version="1.0"><defs><filter x="0%" y="0%" width="100%" height="100%" id="da44174247"><feColorMatrix values="0 0 0 0 1 0 0 0 0 1 0 0 0 0 1 0 0 0 1 0" color-interpolation-filters="sRGB"></feColorMatrix></filter><filter x="0%" y="0%" width="100%" height="100%" id="2b37e39b03"><feColorMatrix values="0 0 0 0 1 0 0 0 0 1 0 0 0 0 1 0.2126 0.7152 0.0722 0 0" color-interpolation-filters="sRGB"></feColorMatrix></filter><clipPath id="92bfa0b435"><path d="M 0.3125 0 L 841.527344 0 L 841.527344 595 L 0.3125 595 Z M 0.3125 0 " clip-rule="nonzero"></path></clipPath><clipPath id="e861059e4d"><path d="M 108.34375 151.003906 L 733 151.003906 L 733 444 L 108.34375 444 Z M 108.34375 151.003906 " clip-rule="nonzero"></path></clipPath><mask id="71487eb77b"><g filter="url(#da44174247)"><g filter="url(#2b37e39b03)" transform="matrix(0.193251, 0, 0, 0.193402, 108.342421, 151.004654)"><image x="0" y="0" width="3234" height="1515" preserveAspectRatio="xMidYMid meet"></image></g></g></mask></defs><g clip-path="url(#92bfa0b435)"><path fill="#ffffff" d="M 0.3125 0 L 841.855469 0 L 841.855469 595 L 0.3125 595 Z M 0.3125 0 " fill-opacity="1" fill-rule="nonzero"></path><path fill="#ffffff" d="M 0.3125 0 L 841.855469 0 L 841.855469 595 L 0.3125 595 Z M 0.3125 0 " fill-opacity="1" fill-rule="nonzero"></path></g><g clip-path="url(#e861059e4d)"><g mask="url(#71487eb77b)"><g transform="matrix(0.193251, 0, 0, 0.193402, 108.342421, 151.004654)"><image x="0" y="0" width="3234" height="1515" preserveAspectRatio="xMidYMid meet"></image></g></g></g></svg>