<svg xmlns="http://www.w3.org/2000/svg" xmlns:xlink="http://www.w3.org/1999/xlink" width="1123" zoomAndPan="magnify" viewBox="0 0 841.92 595.499987" height="794" preserveAspectRatio="xMidYMid meet" version="1.0"><defs><filter x="0%" y="0%" width="100%" height="100%" id="69f3b294f1"><feColorMatrix values="0 0 0 0 1 0 0 0 0 1 0 0 0 0 1 0 0 0 1 0" color-interpolation-filters="sRGB"></feColorMatrix></filter><filter x="0%" y="0%" width="100%" height="100%" id="301b9f7af9"><feColorMatrix values="0 0 0 0 1 0 0 0 0 1 0 0 0 0 1 0.2126 0.7152 0.0722 0 0" color-interpolation-filters="sRGB"></feColorMatrix></filter><clipPath id="47ac5e045f"><path d="M 0.3125 0 L 841.527344 0 L 841.527344 595 L 0.3125 595 Z M 0.3125 0 " clip-rule="nonzero"></path></clipPath><clipPath id="1048eb030b"><path d="M 106 136 L 735.855469 136 L 735.855469 459 L 106 459 Z M 106 136 " clip-rule="nonzero"></path></clipPath><mask id="b5068d1254"><g filter="url(#69f3b294f1)"><g filter="url(#301b9f7af9)" transform="matrix(0.188238, 0, 0, 0.188324, 105.636423, 135.55024)"><image x="0" y="0" width="3348" height="1719" preserveAspectRatio="xMidYMid meet"></image></g></g></mask></defs><g clip-path="url(#47ac5e045f)"><path fill="#ffffff" d="M 0.3125 0 L 841.855469 0 L 841.855469 595 L 0.3125 595 Z M 0.3125 0 " fill-opacity="1" fill-rule="nonzero"></path><path fill="#ffffff" d="M 0.3125 0 L 841.855469 0 L 841.855469 595 L 0.3125 595 Z M 0.3125 0 " fill-opacity="1" fill-rule="nonzero"></path></g><g clip-path="url(#1048eb030b)"><g mask="url(#b5068d1254)"><g transform="matrix(0.188238, 0, 0, 0.188324, 105.636423, 135.55024)"><image x="0" y="0" width="3348" height="1719" preserveAspectRatio="xMidYMid meet"></image></g></g></g></svg>