<svg xmlns="http://www.w3.org/2000/svg" xmlns:xlink="http://www.w3.org/1999/xlink" width="1123" zoomAndPan="magnify" viewBox="0 0 841.92 595.499987" height="794" preserveAspectRatio="xMidYMid meet" version="1.0"><defs><filter x="0%" y="0%" width="100%" height="100%" id="07501472e7"><feColorMatrix values="0 0 0 0 1 0 0 0 0 1 0 0 0 0 1 0 0 0 1 0" color-interpolation-filters="sRGB"></feColorMatrix></filter><filter x="0%" y="0%" width="100%" height="100%" id="2868074742"><feColorMatrix values="0 0 0 0 1 0 0 0 0 1 0 0 0 0 1 0.2126 0.7152 0.0722 0 0" color-interpolation-filters="sRGB"></feColorMatrix></filter><clipPath id="6a9ade1961"><path d="M 0.3125 0 L 841.527344 0 L 841.527344 595 L 0.3125 595 Z M 0.3125 0 " clip-rule="nonzero"></path></clipPath><clipPath id="a4cb71d4a4"><path d="M 103.324219 89.238281 L 738.789062 89.238281 L 738.789062 505.890625 L 103.324219 505.890625 Z M 103.324219 89.238281 " clip-rule="nonzero"></path></clipPath><mask id="bf77c93d71"><g filter="url(#07501472e7)"><g filter="url(#2868074742)" transform="matrix(0.179257, 0, 0, 0.179204, 103.323224, 89.239746)"><image x="0" y="0" width="3545" height="2325" preserveAspectRatio="xMidYMid meet"></image></g></g></mask></defs><g clip-path="url(#6a9ade1961)"><path fill="#ffffff" d="M 0.3125 0 L 841.855469 0 L 841.855469 595 L 0.3125 595 Z M 0.3125 0 " fill-opacity="1" fill-rule="nonzero"></path><path fill="#ffffff" d="M 0.3125 0 L 841.855469 0 L 841.855469 595 L 0.3125 595 Z M 0.3125 0 " fill-opacity="1" fill-rule="nonzero"></path></g><g clip-path="url(#a4cb71d4a4)"><g mask="url(#bf77c93d71)"><g transform="matrix(0.179257, 0, 0, 0.179204, 103.323224, 89.239746)"><image x="0" y="0" width="3545" height="2325" preserveAspectRatio="xMidYMid meet"></image></g></g></g></svg>